<?xml version="1.0" standalone="no"?>
<svg viewBox="0 0 200 200" xmlns="http://www.w3.org/2000/svg">
  <path fill="#3D7186" d="M38.2,-62.8C52.4,-58.1,68.5,-53.5,71.6,-43C74.8,-32.6,64.9,-16.3,65,0.1C65.2,16.5,75.4,33,73.7,45.8C71.9,58.6,58.2,67.8,43.9,68.1C29.6,68.4,14.8,59.9,1.6,57.1C-11.5,54.2,-23,57,-35.3,55.6C-47.6,54.1,-60.6,48.3,-71,38.3C-81.4,28.3,-89.2,14.2,-86.9,1.3C-84.7,-11.6,-72.4,-23.2,-61,-31.3C-49.5,-39.4,-38.8,-44,-28.7,-51.1C-18.7,-58.2,-9.4,-67.7,1.4,-70.1C12.1,-72.4,24.1,-67.6,38.2,-62.8Z" transform="translate(100 100)" />
</svg>
